<?xml version="1.0" encoding="utf-8"?>
<!-- Generator: Adobe Illustrator 21.0.0, SVG Export Plug-In . SVG Version: 6.00 Build 0)  -->
<svg version="1.1" id="Capa_1" xmlns="http://www.w3.org/2000/svg" xmlns:xlink="http://www.w3.org/1999/xlink" x="0px" y="0px"
	 viewBox="0 0 226.8 99.2" style="enable-background:new 0 0 226.8 99.2;" xml:space="preserve">
<style type="text/css">
	.st0{fill:#1D1D1B;}
	.st1{fill:#FF0000;}
	.st2{fill:#7C7C7B;}
	.st3{fill:#FFFFFF;}
</style>
<g>
	<path class="st0" d="M78.5,64.4c-0.4-1.2-0.5-3-0.5-6.6V48c0-6.5-3.7-9.1-9.9-9.1c-3.3,0-6.4,0.5-9.7,2.7l2.1,3.9
		c1.6-0.9,3.7-1.8,6.4-1.8c2.6,0,4.7,1.2,4.7,4.2v0.6l-4.4,0.2c-6.4,0.2-10.4,3-10.4,8.2c0,4.9,3.6,8,8.2,8c3.3,0,5.6-1.3,7.2-2.7
		l1.1,2.2H78.5z M71.6,58.4c-0.8,0.7-2.3,1.6-4.5,1.6c-2.6,0-4.1-1.4-4.1-3.5c0-2.1,1.5-3.3,5-3.4l3.6-0.1V58.4z"/>
	<path class="st0" d="M94.1,65c-8.1,0-12.3-5.8-12.3-12.9c0-7.6,5.5-13.2,12.9-13.2c3.4,0,5.7,0.8,7.1,1.7l-0.1,5.2
		c-1.7-1.3-3.7-2.1-6.3-2.1c-4.3,0-7.3,3.4-7.3,8c0,4.3,2.3,8.1,7.3,8.1c2.4,0,4.2-0.7,5.9-1.7l1.6,4.2C100.9,63.6,97.5,65,94.1,65"
		/>
	<path class="st0" d="M116.5,65c-8.1,0-12.3-5.8-12.3-12.9c0-7.6,5.5-13.2,12.9-13.2c3.4,0,5.7,0.8,7.1,1.7l-0.1,5.2
		c-1.7-1.3-3.7-2.1-6.3-2.1c-4.3,0-7.3,3.4-7.3,8c0,4.3,2.3,8.1,7.3,8.1c2.4,0,4.2-0.7,5.9-1.7l1.6,4.2
		C123.3,63.6,119.9,65,116.5,65"/>
	<path class="st0" d="M129.2,39.5h6.3v24.9h-6.3V39.5z M132.3,35.7c-2.2,0-3.9-1.7-3.9-3.8c0-2.1,1.7-3.8,3.9-3.8
		c2.2,0,3.9,1.7,3.9,3.8C136.3,33.9,134.5,35.7,132.3,35.7"/>
	<path class="st0" d="M164.3,51.9c0-3.8-1.2-7.1-3.3-9.4c-2.2-2.3-5.3-3.6-9.2-3.6c-3.6,0-6.6,1.3-8.9,3.5c-2.3,2.4-3.6,5.7-3.6,9.6
		c0,4,1.4,7.4,3.8,9.7c2.2,2,5.1,3.1,8.6,3.1c3.7,0,6.8-1.3,9-3.6C163.1,59.1,164.3,55.7,164.3,51.9 M157.8,51.9c0,4.7-2,8.1-6,8.1
		c-3.8,0-6.1-3.3-6.1-8.1c0-4.6,2-8,6-8C155.6,43.9,157.8,47.2,157.8,51.9"/>
	<path class="st0" d="M184.3,64.4V49.8c0-2.6-0.5-5.4-3.7-5.4c-2.2,0-4.4,1.2-6.3,2.6v17.4H168V39.5h5.4l0.7,2.7
		c2.7-2,5.4-3.3,8.7-3.3c3.8,0,7.9,2.3,7.9,9v16.5H184.3z"/>
	<path class="st0" d="M215.9,64.4c-0.4-1.2-0.5-3-0.5-6.6V48c0-6.5-3.7-9.1-9.9-9.1c-3.3,0-6.4,0.5-9.7,2.7l2.1,3.9
		c1.6-0.9,3.7-1.8,6.4-1.8c2.6,0,4.7,1.2,4.7,4.2v0.6l-4.4,0.2c-6.4,0.2-10.4,3-10.4,8.2c0,4.9,3.6,8,8.2,8c3.3,0,5.6-1.3,7.2-2.7
		l1.1,2.2H215.9z M209,58.4c-0.8,0.7-2.3,1.6-4.5,1.6c-2.6,0-4.1-1.4-4.1-3.5c0-2.1,1.5-3.3,5-3.4L209,53V58.4z"/>
	<path class="st1" d="M46,52.9c-0.5-1.9-0.9-3.7-1.3-5.5c-0.7-3.3-1.3-6.6-1.6-10C43,36.5,43,35.6,43,34.8c-0.1-1.4-0.1-2.8-0.1-4
		c0-2.3,0.2-4.4,0.5-6.3c0.3-2.5,0.8-4.6,1.2-6.4c-0.4,0.3-0.8,0.6-1.2,0.9c-0.5,1.3-1,3.2-1.5,5.5c-0.3,1.6-0.7,3.4-0.9,5.4
		c-1.9-0.8-3.7-1.7-5.3-2.9l0,2.6c1.6,1.3,3.2,2.5,5,3.5c-0.2,3-0.3,6.2-0.1,9.8c0.1,1.1,0.2,2.2,0.3,3.4c-3.6-1-7.4-2.5-10.6-4.7
		l0,2.6c3.4,2.8,7.4,5.1,11.1,6.7c0.5,3.7,1.2,7.4,1.8,11.2c-4.9-0.7-11.5-2.4-16.7-5.9l0,2.6c5.4,4.5,12.2,7.7,17.4,8.7
		c1.1,7.8,1.5,16-0.4,25.4l6.1-3.6C52.1,76,48.8,64.2,46,52.9"/>
	<path class="st1" d="M63.8,17.5c0,0,0-1.3,0-1.8c-0.5-0.1-1.8-0.3-1.8-0.3c-3.4-0.5-10-2.2-15.8-7.8c0,0-1.1-1-1.5-1.5
		c-0.5,0.5-1.5,1.5-1.5,1.5c-5.7,5.6-12.3,7.2-15.8,7.8c0,0-1.3,0.2-1.8,0.3c0,0.5-0.1,1.8-0.1,1.8c-0.8,10.9-6.6,16.2-9.9,18.4
		c0,0-0.9,0.6-1.3,0.9c0.1,0.4,0.4,1.5,0.4,1.5c0.6,2.6,0.9,4.7,0.9,6.5c0,5.8-2.1,10.1-3.9,12.6c0,0-0.5,0.8-0.8,1.1
		c0.2,0.3,0.6,1.2,0.6,1.2c5.1,10.8,20,18.5,27.9,18.7L39.1,77c-6-0.2-23.3-10.2-22.9-18v-0.5l0,0c2.5-4.1,3.8-8.7,3.8-13.7
		c0-1.5-0.2-3.3-0.7-5.7l-0.1-0.3l0.2-0.2c3.9-3,8.8-8.7,10.2-18.7l0-0.3l0.3-0.1c3.7-0.8,9.1-2.6,14.4-7l0.3-0.4l0.3,0.4
		c5.2,4.3,10.8,6.3,14.5,7c0.6,7,4.7,10.1,8.1,11.4c0.3-0.2,0.8-0.7,1.3-1.1C67.4,29,63.8,25.6,63.8,17.5"/>
	<path class="st1" d="M207.9,84.3c0-0.8,0.3-1.3,0.9-1.5c0.6-0.3,1.2-0.4,1.9-0.4c0.6,0,1.1,0,1.7,0.1v2.4c-0.8,0.7-1.6,1-2.5,1
		c-0.6,0-1.1-0.1-1.4-0.4C208.1,85.2,207.9,84.8,207.9,84.3 M215.1,87.6c-0.1-0.6-0.2-1.3-0.2-2.1V80c0-1.3-0.4-2.2-1.1-2.9
		c-0.8-0.6-1.8-0.9-3.1-0.9c-0.8,0-1.6,0.1-2.4,0.3c-0.8,0.2-1.5,0.5-2,0.9l0.8,1.5c1-0.5,2-0.7,3-0.7c0.7,0,1.2,0.1,1.6,0.4
		c0.3,0.2,0.5,0.5,0.6,0.8c0.1,0.3,0.1,0.7,0.1,1.1v0.3c-0.6-0.1-1.3-0.2-2.1-0.2c-1.6,0-2.9,0.3-3.7,1c-0.8,0.7-1.2,1.6-1.2,2.7
		c0,1.1,0.3,2,1,2.6c0.7,0.6,1.6,1,2.7,1c1.3,0,2.4-0.4,3.5-1.2l0.3,1H215.1z M200.4,75.1l4.9-3l-1.3-1.9l-4.4,3.7L200.4,75.1z
		 M200.5,87.6h2.6V76.4h-2.6V87.6z M193.1,91.3c-1.3,0-2.2-0.1-2.6-0.4c-0.5-0.2-0.7-0.6-0.7-1.1c0-0.7,0.3-1.2,0.9-1.7
		c0.6,0.2,1.3,0.3,2.2,0.3l1,0.1c1,0.1,1.7,0.2,2,0.4c0.4,0.2,0.6,0.4,0.6,0.8c0,0.5-0.2,0.8-0.7,1.1
		C195.3,91.1,194.4,91.3,193.1,91.3 M192.9,77.9c0.7,0,1.3,0.2,1.7,0.7c0.4,0.4,0.6,1.1,0.6,1.9c0,0.8-0.2,1.4-0.6,1.9
		c-0.4,0.4-1,0.7-1.8,0.7c-0.7,0-1.3-0.2-1.7-0.7c-0.4-0.4-0.7-1.1-0.7-1.9c0-0.8,0.2-1.4,0.7-1.9C191.6,78.2,192.2,77.9,192.9,77.9
		 M194.3,86.5l-1.2-0.1c-0.9-0.1-1.5-0.2-1.8-0.3c-0.4-0.1-0.5-0.3-0.5-0.6c0-0.2,0.1-0.4,0.2-0.5c0.1-0.1,0.3-0.3,0.5-0.4
		c0.4,0.1,0.9,0.2,1.5,0.2c1.5,0,2.7-0.4,3.5-1.2c0.9-0.8,1.3-1.8,1.3-3.1c0-1.3-0.4-2.3-1.3-3.1c1.1-0.1,1.8-0.1,2.3-0.2v-2.2
		c-1.4,0.3-2.7,0.7-4,1.4c-0.6-0.2-1.2-0.3-1.9-0.3c-1.5,0-2.7,0.4-3.6,1.2c-0.9,0.8-1.3,1.8-1.3,3.1c0,0.8,0.2,1.5,0.5,2.1
		c0.3,0.6,0.8,1.1,1.4,1.4c-0.9,0.6-1.4,1.3-1.4,2.1c0,0.6,0.3,1,0.8,1.4c-1.3,0.7-1.9,1.6-1.9,2.7c0,1.9,1.9,2.8,5.7,2.8
		c2,0,3.5-0.3,4.4-0.9c1-0.6,1.4-1.5,1.4-2.5c0-1-0.4-1.8-1.2-2.2C197,87,195.8,86.7,194.3,86.5 M185.7,76.2c-0.7,0-1.4,0.2-1.9,0.6
		c-0.5,0.4-1,0.8-1.3,1.3l-0.3-1.6h-2.1v11.2h2.6v-7.6c0.3-0.5,0.6-0.9,1.1-1.2c0.5-0.3,1-0.5,1.6-0.5c0.4,0,0.8,0,1,0.1l0.4-2.2
		C186.7,76.2,186.3,76.2,185.7,76.2 M172.8,78.1c0.7,0,1.3,0.2,1.8,0.7c0.4,0.5,0.7,1.1,0.7,2.1h-5.2c0.1-0.9,0.4-1.5,0.8-2
		C171.3,78.4,171.9,78.1,172.8,78.1 M177.8,82.2c0-1.9-0.4-3.4-1.2-4.5s-2.1-1.6-3.7-1.6c-1.7,0-2.9,0.5-3.9,1.6
		c-0.9,1.1-1.4,2.5-1.4,4.3c0,1.8,0.5,3.2,1.5,4.3c1,1.1,2.4,1.6,4.3,1.6c1.4,0,2.6-0.3,3.6-0.8l-0.9-1.7c-0.3,0.2-0.7,0.3-1.1,0.4
		c-0.5,0.1-1,0.2-1.5,0.2c-1,0-1.8-0.3-2.4-0.8c-0.6-0.5-0.9-1.3-1-2.4h7.7V82.2z M161.4,76.2c-0.8,0-1.5,0.1-2.1,0.4
		c-0.6,0.3-1.3,0.7-1.9,1.3l-0.3-1.4h-2.1v11.2h2.6v-8c0.5-0.5,1-0.8,1.5-1c0.5-0.2,0.9-0.3,1.5-0.3c0.9,0,1.5,0.2,1.7,0.7
		s0.4,1.1,0.4,2v6.6h2.6v-7c0-1.4-0.3-2.5-0.9-3.3C163.7,76.6,162.7,76.2,161.4,76.2 M147.7,78.1c0.7,0,1.3,0.2,1.8,0.7
		c0.4,0.5,0.7,1.1,0.7,2.1H145c0.1-0.9,0.4-1.5,0.8-2C146.2,78.4,146.8,78.1,147.7,78.1 M152.6,82.2c0-1.9-0.4-3.4-1.2-4.5
		c-0.8-1.1-2.1-1.6-3.7-1.6c-1.7,0-2.9,0.5-3.9,1.6c-0.9,1.1-1.4,2.5-1.4,4.3c0,1.8,0.5,3.2,1.5,4.3c1,1.1,2.4,1.6,4.3,1.6
		c1.4,0,2.6-0.3,3.6-0.8l-0.9-1.7c-0.3,0.2-0.7,0.3-1.1,0.4s-1,0.2-1.5,0.2c-1,0-1.8-0.3-2.4-0.8c-0.6-0.5-0.9-1.3-1-2.4h7.7V82.2z"
		/>
</g>
</svg>
